<svg xmlns="http://www.w3.org/2000/svg" xmlns:xlink="http://www.w3.org/1999/xlink" width="500" zoomAndPan="magnify" viewBox="0 0 375 374.999991" height="500" preserveAspectRatio="xMidYMid meet" version="1.0"><defs><clipPath id="a32c03e22b"><path d="M 187.5 0 C 83.945312 0 0 83.945312 0 187.5 C 0 291.054688 83.945312 375 187.5 375 C 291.054688 375 375 291.054688 375 187.5 C 375 83.945312 291.054688 0 187.5 0 Z M 187.5 0 " clip-rule="nonzero"/></clipPath><clipPath id="8ca2f56934"><path d="M 0 0 L 375 0 L 375 375 L 0 375 Z M 0 0 " clip-rule="nonzero"/></clipPath><clipPath id="1336d8e529"><path d="M 187.5 0 C 83.945312 0 0 83.945312 0 187.5 C 0 291.054688 83.945312 375 187.5 375 C 291.054688 375 375 291.054688 375 187.5 C 375 83.945312 291.054688 0 187.5 0 Z M 187.5 0 " clip-rule="nonzero"/></clipPath><clipPath id="e84921c742"><rect x="0" width="375" y="0" height="375"/></clipPath><clipPath id="f139682aa5"><path d="M 150 101 L 226 101 L 226 275.363281 L 150 275.363281 Z M 150 101 " clip-rule="nonzero"/></clipPath></defs><g clip-path="url(#a32c03e22b)"><g transform="matrix(1, 0, 0, 1, 0, 0)"><g clip-path="url(#e84921c742)"><g clip-path="url(#8ca2f56934)"><g clip-path="url(#1336d8e529)"><rect x="-82.5" width="540" fill="#dee2ff" height="539.999987" y="-82.499998" fill-opacity="1"/></g></g></g></g></g><path fill="#7a88a0" d="M 125.785156 250.445312 C 122.082031 250.445312 119.613281 249.210938 117.144531 246.742188 L 67.773438 197.371094 C 62.835938 192.433594 62.835938 185.027344 67.773438 180.09375 L 117.144531 130.722656 C 122.082031 125.785156 129.488281 125.785156 134.425781 130.722656 C 139.363281 135.660156 139.363281 143.0625 134.425781 148 L 93.695312 188.730469 L 134.425781 229.460938 C 139.363281 234.398438 139.363281 241.804688 134.425781 246.742188 C 131.957031 249.210938 129.488281 250.445312 125.785156 250.445312 Z M 125.785156 250.445312 " fill-opacity="1" fill-rule="nonzero"/><path fill="#7a88a0" d="M 249.210938 250.445312 C 245.507812 250.445312 243.039062 249.210938 240.570312 246.742188 C 235.632812 241.804688 235.632812 234.398438 240.570312 229.460938 L 281.300781 188.730469 L 240.570312 148 C 235.632812 143.0625 235.632812 135.660156 240.570312 130.722656 C 245.507812 125.785156 252.914062 125.785156 257.851562 130.722656 L 307.222656 180.09375 C 312.160156 185.027344 312.160156 192.433594 307.222656 197.371094 L 257.851562 246.742188 C 255.382812 249.210938 252.914062 250.445312 249.210938 250.445312 Z M 249.210938 250.445312 " fill-opacity="1" fill-rule="nonzero"/><g clip-path="url(#f139682aa5)"><path fill="#7a88a0" d="M 162.8125 275.128906 C 161.578125 275.128906 160.34375 275.128906 159.109375 273.894531 C 152.9375 271.425781 149.234375 265.257812 151.703125 257.851562 L 201.074219 109.738281 C 203.542969 103.566406 209.714844 99.863281 217.121094 102.332031 C 223.292969 104.800781 226.996094 110.972656 224.527344 118.378906 L 175.15625 266.492188 C 172.6875 271.425781 167.75 275.128906 162.8125 275.128906 Z M 162.8125 275.128906 " fill-opacity="1" fill-rule="nonzero"/></g></svg>